<svg xmlns="http://www.w3.org/2000/svg" viewBox="0 0 512.003 512.003" style="enable-background:new 0 0 512.003 512.003" xml:space="preserve"><path d="M480.619 245.91c12.54-12.212 16.963-30.148 11.548-46.799-5.319-16.391-19.782-28.59-36.852-31.075l-103.122-14.979a2.839 2.839 0 0 1-2.138-1.551l-46.116-93.453c-7.751-15.697-23.431-25.448-40.924-25.448-17.507 0-33.197 9.751-40.944 25.449l-46.12 93.453a2.833 2.833 0 0 1-2.137 1.551l-103.13 14.979c-17.064 2.485-31.526 14.679-36.839 31.059-5.334 16.4-.803 34.775 11.542 46.813l74.608 72.731c.672.656.979 1.599.823 2.52l-17.61 102.704c-2.967 17.244 3.991 34.354 18.163 44.655 7.857 5.708 17.136 8.726 26.837 8.726a45.787 45.787 0 0 0 21.241-5.252l92.242-48.494a2.892 2.892 0 0 1 2.647-.001l92.222 48.496a45.839 45.839 0 0 0 21.236 5.242c9.714 0 18.996-3.015 26.839-8.714 14.175-10.292 21.136-27.402 18.167-44.646l-17.609-102.718a2.842 2.842 0 0 1 .817-2.513l74.609-72.735z"/><path style="fill:#ef7a06" d="M175.7 467c-9.7 0-18.98-3.018-26.837-8.726-14.171-10.302-21.13-27.411-18.163-44.655l17.61-102.704a2.86 2.86 0 0 0-.823-2.52l-74.608-72.731c-12.345-12.038-16.875-30.413-11.542-46.813 2.814-8.677 8.212-16.157 15.188-21.665l-5.843.849c-17.064 2.485-31.526 14.679-36.839 31.059-5.334 16.4-.803 34.775 11.542 46.813l74.608 72.731c.672.656.979 1.599.823 2.52l-17.61 102.704c-2.967 17.244 3.991 34.354 18.163 44.655 7.857 5.708 17.136 8.726 26.837 8.726a45.787 45.787 0 0 0 21.241-5.252l9.791-5.147a45.394 45.394 0 0 1-3.538.156z"/><path style="fill:#f65c1d" d="M507.821 194.023c-7.346-22.646-26.554-38.843-50.137-42.276l-96.04-13.95-42.945-87.027c-10.54-21.356-31.878-34.624-55.684-34.624-23.821 0-45.165 13.268-55.702 34.624l-42.952 87.027-96.043 13.95c-23.576 3.433-42.786 19.63-50.128 42.267-7.364 22.646-1.346 47.047 15.705 63.68l69.489 67.739-16.401 95.645c-4.031 23.465 5.434 46.742 24.707 60.752 10.684 7.767 23.31 11.873 36.517 11.873a62.33 62.33 0 0 0 28.907-7.143l85.902-45.162 85.887 45.164a62.371 62.371 0 0 0 28.894 7.132c13.216 0 25.849-4.102 36.519-11.859 19.279-14.001 28.748-37.282 24.714-60.749l-16.402-95.654 69.482-67.736c17.059-16.614 23.079-41.019 15.711-63.673zm-34.725 44.163-34.93 34.053-18.488 18.024-21.196 20.662a13.616 13.616 0 0 0-3.916 12.056l17.609 102.717c2.268 13.173-3.047 26.238-13.875 34.099-5.991 4.355-13.081 6.658-20.505 6.658a35.023 35.023 0 0 1-16.221-4.005l-92.219-48.494a13.623 13.623 0 0 0-12.679-.001L164.43 462.45a34.974 34.974 0 0 1-16.224 4.014c-7.412 0-14.498-2.307-20.498-6.666-10.824-7.868-16.141-20.934-13.875-34.106l17.611-102.71a13.631 13.631 0 0 0-3.919-12.058L52.913 238.19c-9.427-9.194-12.889-23.228-8.815-35.758 4.06-12.514 15.105-21.825 28.14-23.724l103.124-14.979a13.626 13.626 0 0 0 10.258-7.45l46.118-93.452c5.916-11.989 17.902-19.438 31.275-19.438 13.362 0 25.337 7.449 31.256 19.438l46.116 93.452a13.62 13.62 0 0 0 10.256 7.45l103.122 14.979c13.037 1.899 24.084 11.211 28.146 23.733 4.14 12.72.765 26.417-8.813 35.745z"/><path style="fill:#231f20" d="M141.199 502.867c-14.927 0-29.198-4.64-41.272-13.418-21.779-15.832-32.479-42.141-27.921-68.663l15.681-91.452-66.445-64.772C1.97 245.763-4.83 218.186 3.493 192.592c8.298-25.584 30.007-43.889 56.652-47.769l91.839-13.34 41.071-83.215c11.909-24.138 36.032-39.132 62.954-39.132 26.907 0 51.022 14.994 62.937 39.132l41.064 83.215 91.832 13.34c26.652 3.879 48.364 22.189 56.666 47.783 8.329 25.603 1.522 53.179-17.763 71.961l-66.437 64.765 15.683 91.464c4.561 26.524-6.141 52.833-27.931 68.659-12.06 8.768-26.332 13.403-41.27 13.403a70.481 70.481 0 0 1-32.654-8.06l-82.127-43.187-82.138 43.184a70.437 70.437 0 0 1-32.672 8.072zM256.008 25.31c-20.72 0-39.284 11.54-48.451 30.116l-42.952 87.028a8.086 8.086 0 0 1-6.088 4.423l-96.043 13.951c-20.507 2.985-37.214 17.071-43.601 36.76-6.406 19.702-1.172 40.927 13.66 55.395l69.487 67.738a8.085 8.085 0 0 1 2.325 7.157l-16.399 95.645c-3.507 20.412 4.728 40.66 21.492 52.845 9.293 6.757 20.276 10.327 31.763 10.327a54.196 54.196 0 0 0 25.14-6.212l85.905-45.164a8.088 8.088 0 0 1 7.528.001l85.887 45.164a54.253 54.253 0 0 0 25.13 6.203c11.499 0 22.483-3.567 31.764-10.313 16.772-12.181 25.008-32.426 21.499-52.839l-16.402-95.657a8.082 8.082 0 0 1 2.325-7.157l69.482-67.736c14.842-14.455 20.079-35.675 13.669-55.383-6.39-19.699-23.101-33.79-43.612-36.774l-96.036-13.951a8.083 8.083 0 0 1-6.088-4.423l-42.948-87.028c-9.17-18.576-27.73-30.116-48.436-30.116zM141.199 475.626c-9.127 0-17.858-2.839-25.252-8.21-13.334-9.693-19.88-25.793-17.091-42.018l17.611-102.706a5.553 5.553 0 0 0-1.596-4.903l-74.61-72.732c-11.616-11.327-15.878-28.618-10.859-44.048 4.999-15.413 18.607-26.887 34.663-29.225l103.128-14.979a5.535 5.535 0 0 0 4.168-3.026l46.119-93.453c7.291-14.77 22.052-23.946 38.526-23.946 16.46 0 31.215 9.175 38.508 23.945l46.116 93.453a5.528 5.528 0 0 0 4.167 3.027l103.122 14.979c16.061 2.339 29.672 13.815 34.675 29.239 5.096 15.669.934 32.546-10.864 44.037l-34.928 34.05a8.086 8.086 0 0 1-11.434-.146 8.085 8.085 0 0 1 .146-11.434l34.93-34.053c7.355-7.164 9.948-17.683 6.77-27.458-3.121-9.619-11.608-16.773-21.623-18.231l-103.12-14.979a21.695 21.695 0 0 1-16.344-11.875l-46.116-93.451c-4.547-9.21-13.744-14.931-24.005-14.931-10.273 0-19.478 5.722-24.024 14.931l-46.118 93.452a21.701 21.701 0 0 1-16.346 11.874L66.393 187.786c-10.01 1.459-18.494 8.608-21.611 18.217-3.131 9.629-.473 20.412 6.769 27.474l74.611 72.733a21.724 21.724 0 0 1 6.245 19.211l-17.612 102.714c-1.739 10.116 2.346 20.153 10.661 26.198a26.614 26.614 0 0 0 15.743 5.12c4.318 0 8.626-1.066 12.46-3.084l92.247-48.496a21.699 21.699 0 0 1 20.208.003l92.217 48.494a26.902 26.902 0 0 0 12.457 3.076 26.621 26.621 0 0 0 15.75-5.112c8.318-6.04 12.401-16.072 10.66-26.186l-17.609-102.723a21.698 21.698 0 0 1 6.243-19.213l21.194-20.661a8.083 8.083 0 0 1 11.434.146 8.085 8.085 0 0 1-.146 11.434l-21.195 20.662a5.53 5.53 0 0 0-1.592 4.899l17.609 102.717c2.795 16.227-3.755 32.326-17.093 42.01-7.379 5.364-16.112 8.199-25.255 8.199a43.14 43.14 0 0 1-19.982-4.933l-92.222-48.496a5.525 5.525 0 0 0-5.153.001l-92.243 48.495a43.121 43.121 0 0 1-19.989 4.941z"/></svg>