<svg xmlns="http://www.w3.org/2000/svg" version="1.1" viewBox="-5.0 -10.0 110.0 135.0">
 <g>
  <path d="m78.691 33.582c-0.085937-0.015625-0.16797-0.015625-0.24609-0.003906-0.035156-0.003906-0.070312-0.011719-0.10937-0.011719l-45.461 0.003906c-1.3203-3.4609-3.1406-8.2461-3.2422-8.5352-0.69922-2.0547-2.6211-3.4375-4.7852-3.4375h-3.3984c-0.41797 0-0.75781 0.33984-0.75781 0.75781s0.33984 0.75781 0.75781 0.75781h3.3984c1.5156 0 2.8594 0.96875 3.3477 2.4062 0.14453 0.42188 2.9805 7.8594 3.4375 9.0508l3.4492 23.512-1.5508 4.0586c-0.03125 0.085937-0.050781 0.17969-0.050781 0.26953 0 2.7852 2.2656 5.0508 5.0508 5.0508h4.5156l-2.043 2.6289c-2.207 0.097656-3.9727 1.918-3.9727 4.1484 0 2.293 1.8672 4.1602 4.1602 4.1602 2.293 0 4.1602-1.8672 4.1602-4.1602 0-1.7578-1.0977-3.2617-2.6406-3.8672l2.2617-2.9102h20.613l-2.043 2.6289c-2.207 0.097656-3.9727 1.918-3.9727 4.1484 0 2.293 1.8672 4.1602 4.1602 4.1602s4.1602-1.8672 4.1602-4.1602c0-1.7578-1.0977-3.2617-2.6406-3.8672l2.2617-2.9102h3.8789c0.41797 0 0.75781-0.33984 0.75781-0.75781s-0.33984-0.75781-0.75781-0.75781h-32.855c-1.9062 0-3.4609-1.5156-3.5312-3.4023l1.3828-3.6211h34.578c2.25 0 4.1016-1.5273 4.3984-3.6133 0.054688-0.32422 2.5977-13.773 3.9336-20.84 0.074219-0.41016-0.19531-0.80859-0.60547-0.88672zm-37.496 38.586c1.1445 0 2.0742 0.92969 2.0742 2.0742 0 1.1445-0.92969 2.0742-2.0742 2.0742-1.1445 0-2.0742-0.92969-2.0742-2.0742 0-1.1445 0.92969-2.0742 2.0742-2.0742zm22.535 0c1.1445 0 2.0742 0.92969 2.0742 2.0742 0 1.1445-0.92969 2.0742-2.0742 2.0742s-2.0742-0.92969-2.0742-2.0742c0-1.1445 0.92969-2.0742 2.0742-2.0742zm7.2344-14.762h-1.9961l1.3555-10.402h5.0586c-0.82812 4.3828-1.5078 7.9961-1.5195 8.0742-0.19531 1.3711-1.3867 2.3281-2.8984 2.3281zm-34.449 0-1.5273-10.402h5.1914l1.3555 10.402zm5.0547-22.32h4.8867l0.67578 10.402h-5.6172l-1.3555-10.402zm7.8164 0h5.1094v10.402h-5.8438l-0.67578-10.402zm13.145 0-0.67578 10.402h-5.8438v-10.402zm7.8164 0-1.3555 10.402h-5.6211l0.67578-10.402zm-35.695 0h3.9844l1.3555 10.402h-5.2188l-1.5273-10.402zm8.418 22.32-1.3555-10.402h5.5156l0.67578 10.402zm6.3594 0-0.67578-10.402h5.7422v10.402zm6.582-10.402h5.7422l-0.67578 10.402h-5.0664zm7.2617 0h5.5195l-1.3555 10.402h-4.8398zm12.395-1.5156h-5.1445l1.3555-10.402h5.7578c-0.53125 2.7891-1.2773 6.7422-1.9688 10.402z"/>
  <path d="m41.195 75.555c0.72656 0 1.3125-0.58984 1.3125-1.3125 0-0.72656-0.58984-1.3125-1.3125-1.3125-0.72656 0-1.3125 0.58984-1.3125 1.3125-0.003906 0.72656 0.58594 1.3125 1.3125 1.3125z"/>
  <path d="m63.73 75.555c0.72656 0 1.3125-0.58984 1.3125-1.3125 0-0.72656-0.58984-1.3125-1.3125-1.3125-0.72656 0-1.3125 0.58984-1.3125 1.3125 0 0.72656 0.58594 1.3125 1.3125 1.3125z"/>
 </g>
</svg>