<svg xmlns="http://www.w3.org/2000/svg" version="1.1" viewBox="-5.0 -10.0 110.0 135.0">
 <path d="m48.699 71.602c0.33984 0.23828 0.75 0.37109 1.1602 0.37109h0.21875c0.42188 0 0.82031-0.12891 1.1602-0.37109 14.25-10.18 22.723-20.102 23.062-20.492 2.7617-3.1719 4.1211-7.2305 3.8281-11.422-0.28906-4.1914-2.1992-8.0195-5.3711-10.781-3.1719-2.7617-7.2383-4.1094-11.422-3.8281-4.1914 0.28906-8.0195 2.1992-10.781 5.3711l-0.57813 0.67188-0.57812-0.67188c-2.7617-3.1719-6.5898-5.0781-10.781-5.3711-4.1914-0.28906-8.25 1.0703-11.422 3.8281-3.1719 2.7617-5.0781 6.5898-5.3711 10.781-0.28906 4.1914 1.0703 8.25 3.8086 11.398 0.34766 0.41406 8.8164 10.336 23.066 20.516zm-22.891-31.641c0.21875-3.1289 1.6406-5.9805 4.0117-8.0391 2.2188-1.9297 4.9609-2.8789 7.6992-2.8789 3.2812 0 6.5508 1.3594 8.8594 4.0312l1.9805 2.2812c0.37891 0.44141 0.92969 0.69141 1.5117 0.69141h0.21875c0.57812 0 1.1289-0.25 1.5117-0.69141l1.9805-2.2812c4.25-4.8789 11.68-5.3984 16.559-1.1484 2.3711 2.0586 3.7891 4.9102 4.0117 8.0391 0.21875 3.1289-0.80078 6.1484-2.8711 8.5391-0.078125 0.10156-8.1016 9.4688-21.289 19.078-13.191-9.6094-21.211-18.988-21.309-19.102-2.0742-2.3711-3.0938-5.3906-2.875-8.5195z"/>
</svg>